<svg xmlns="http://www.w3.org/2000/svg" viewBox="0 0 256 256" style="enable-background:new 0 0 256 256" xml:space="preserve"><style>.st1{fill:#fc657e}.st3{fill:#5290db}.st5{fill:#f5c84c}.st6{fill:#87d147}.st8{fill:#edf4fc}.st18{fill:#3a70bf}.st22{fill:#c7d7e5}</style><g id="Layer_27"><path class="st8" d="M247.983 44.022c-4.498-.838-8.043-4.31-8.898-8.717a.2.2 0 0 0-.395 0c-.855 4.406-4.4 7.879-8.898 8.717a.195.195 0 0 0 0 .387c4.498.838 8.043 4.31 8.898 8.717a.2.2 0 0 0 .395 0c.855-4.406 4.4-7.879 8.898-8.717a.195.195 0 0 0 0-.387z"/><path class="st6" d="M156.884 71.18c-2.965-.552-5.302-2.842-5.866-5.746a.132.132 0 0 0-.26 0c-.564 2.905-2.901 5.194-5.866 5.746a.129.129 0 0 0 0 .255c2.965.552 5.302 2.842 5.866 5.746a.132.132 0 0 0 .26 0c.564-2.905 2.901-5.194 5.866-5.746a.129.129 0 0 0 0-.255z"/><path class="st8" d="M46.694 198.626h-2.329v-2.33a3.156 3.156 0 1 0-6.314 0v2.33h-2.33a3.156 3.156 0 1 0 0 6.314h2.33v2.33a3.156 3.156 0 1 0 6.314 0v-2.33h2.329a3.156 3.156 0 1 0 0-6.314z"/><circle class="st8" cx="252.623" cy="65.762" r="3.377"/><circle class="st8" cx="24.623" cy="178.762" r="3.377"/><path class="st18" d="M35.998 57.808h-8.377a8.184 8.184 0 0 0-8.184 8.185v85.497a8.185 8.185 0 0 0 8.184 8.185h8.377a8.184 8.184 0 0 0 8.184-8.185V65.993a8.185 8.185 0 0 0-8.184-8.185zM220.269 57.808h-8.377a8.184 8.184 0 0 0-8.184 8.185v73.517h4.474a8.184 8.184 0 0 1 8.184 8.184v11.98h3.903a8.184 8.184 0 0 0 8.184-8.184V65.993a8.185 8.185 0 0 0-8.184-8.185z"/><path class="st22" d="M68.928 96.368h110.034v24.746H68.928z"/><path class="st8" d="M96.54 96.368h54.809v24.746H96.54z"/><path class="st22" d="M233.017 96.368h-4.564v24.746h4.564c6.833 0 12.373-5.54 12.373-12.373 0-6.833-5.539-12.373-12.373-12.373zM14.873 96.368c-6.833 0-12.373 5.539-12.373 12.373 0 6.833 5.539 12.373 12.373 12.373h4.564V96.368h-4.564zM104.6 166.562h87.02v24.746H104.6z"/><path class="st8" d="M120.705 166.562h54.809v24.746h-54.809z"/><path class="st1" d="M208.181 139.51h-8.377a8.184 8.184 0 0 0-8.184 8.184v62.482a8.184 8.184 0 0 0 8.184 8.184h8.377a8.184 8.184 0 0 0 8.184-8.184v-62.482a8.183 8.183 0 0 0-8.184-8.184z"/><path class="st22" d="M220.93 166.562h-4.564v24.746h4.564c6.833 0 12.373-5.539 12.373-12.373s-5.54-12.373-12.373-12.373z"/><path class="st1" d="M96.416 139.51h-8.377a8.184 8.184 0 0 0-8.184 8.184v62.482a8.184 8.184 0 0 0 8.184 8.184h8.377a8.184 8.184 0 0 0 8.184-8.184v-62.482a8.184 8.184 0 0 0-8.184-8.184z"/><path class="st22" d="M75.291 166.562c-6.833 0-12.373 5.539-12.373 12.373s5.539 12.373 12.373 12.373h4.564v-24.746h-4.564z"/><path class="st3" d="M195.523 38.288h-8.377a8.184 8.184 0 0 0-8.184 8.185v120.09h12.658v-18.868a8.184 8.184 0 0 1 8.184-8.184h3.903V46.473a8.183 8.183 0 0 0-8.184-8.185zM60.744 38.288h-8.377a8.184 8.184 0 0 0-8.184 8.185V171.01a8.185 8.185 0 0 0 8.184 8.185h8.377c.755 0 1.482-.111 2.177-.302.015-4.485 2.423-8.397 6.008-10.554V46.473a8.186 8.186 0 0 0-8.185-8.185z"/><path class="st5" d="M247.983 44.022c-4.498-.838-8.043-4.31-8.898-8.717a.2.2 0 0 0-.395 0c-.855 4.406-4.4 7.879-8.898 8.717a.195.195 0 0 0 0 .387c4.498.838 8.043 4.31 8.898 8.717a.2.2 0 0 0 .395 0c.855-4.406 4.4-7.879 8.898-8.717a.195.195 0 0 0 0-.387z"/><path class="st6" d="M156.884 71.18c-2.965-.552-5.302-2.842-5.866-5.746a.132.132 0 0 0-.26 0c-.564 2.905-2.901 5.194-5.866 5.746a.129.129 0 0 0 0 .255c2.965.552 5.302 2.842 5.866 5.746a.132.132 0 0 0 .26 0c.564-2.905 2.901-5.194 5.866-5.746a.129.129 0 0 0 0-.255z"/><path d="M46.694 198.626h-2.329v-2.33a3.156 3.156 0 1 0-6.314 0v2.33h-2.33a3.156 3.156 0 1 0 0 6.314h2.33v2.33a3.156 3.156 0 1 0 6.314 0v-2.33h2.329a3.156 3.156 0 1 0 0-6.314z" style="fill:#70d6f9"/><circle class="st1" cx="252.623" cy="65.762" r="3.377"/><circle class="st5" cx="24.623" cy="178.762" r="3.377"/><path d="M44.234 149.171a2.485 2.485 0 0 0-2.554 2.445c-.066 3.064-2.616 5.558-5.683 5.558H27.62a5.692 5.692 0 0 1-5.685-5.684V65.993a5.69 5.69 0 0 1 5.685-5.684h8.377c3.095 0 5.644 2.517 5.684 5.609.018 1.381 1.152 2.471 2.532 2.468a2.5 2.5 0 0 0 2.468-2.532c-.075-5.815-4.867-10.546-10.684-10.546H27.62c-5.892 0-10.685 4.793-10.685 10.684v85.497c0 5.891 4.793 10.684 10.685 10.684h8.377c5.765 0 10.557-4.688 10.682-10.449a2.5 2.5 0 0 0-2.445-2.553zM220.269 55.308h-8.377c-5.818 0-10.61 4.732-10.684 10.549a2.5 2.5 0 0 0 2.469 2.531 2.504 2.504 0 0 0 2.531-2.469c.039-3.094 2.588-5.611 5.684-5.611h8.377a5.69 5.69 0 0 1 5.684 5.685v85.497a5.69 5.69 0 0 1-5.684 5.684h-2.956a2.5 2.5 0 1 0 0 5h2.956c5.891 0 10.684-4.793 10.684-10.684V65.993c0-5.892-4.793-10.685-10.684-10.685zM178.5 93.869H69.812a2.5 2.5 0 1 0 0 5H178.5a2.5 2.5 0 1 0 0-5zM177.938 118.614h-108a2.5 2.5 0 1 0 0 5h108a2.5 2.5 0 1 0 0-5z"/><path d="M151.35 94.875a2.5 2.5 0 0 0-2.5 2.5v22.813a2.5 2.5 0 1 0 5 0V97.375a2.5 2.5 0 0 0-2.5-2.5zM96.541 94.854a2.5 2.5 0 0 0-2.5 2.5v22.979a2.5 2.5 0 1 0 5 0V97.354a2.5 2.5 0 0 0-2.5-2.5zM233.017 93.869h-3.642a2.5 2.5 0 1 0 0 5h3.642c5.444 0 9.873 4.429 9.873 9.873s-4.429 9.873-9.873 9.873h-3.684a2.5 2.5 0 1 0 0 5h3.684c8.201 0 14.873-6.672 14.873-14.873s-6.672-14.873-14.873-14.873zM18.083 118.614h-3.21c-5.444 0-9.873-4.429-9.873-9.873s4.429-9.873 9.873-9.873h3.876a2.5 2.5 0 1 0 0-5h-3.876C6.672 93.869 0 100.541 0 108.741c0 8.201 6.672 14.873 14.873 14.873h3.21a2.5 2.5 0 1 0 0-5zM190.833 164.063h-85.625a2.5 2.5 0 1 0 0 5h85.625a2.5 2.5 0 1 0 0-5zM190.688 188.808h-85.282a2.5 2.5 0 1 0 0 5h85.282a2.5 2.5 0 1 0 0-5z"/><path d="M175.515 165a2.5 2.5 0 0 0-2.5 2.5v22.813a2.5 2.5 0 1 0 5 0V167.5a2.5 2.5 0 0 0-2.5-2.5zM120.706 164.938a2.5 2.5 0 0 0-2.5 2.5V190.5a2.5 2.5 0 1 0 5 0v-23.063a2.5 2.5 0 0 0-2.5-2.499zM208.181 137.009h-8.377c-5.891 0-10.684 4.793-10.684 10.685v62.482c0 5.892 4.793 10.685 10.684 10.685h8.377c5.892 0 10.685-4.793 10.685-10.685v-62.482c0-5.892-4.793-10.685-10.685-10.685zm5.685 73.167a5.692 5.692 0 0 1-5.685 5.685h-8.377a5.69 5.69 0 0 1-5.684-5.685v-62.482a5.692 5.692 0 0 1 5.684-5.685h8.377a5.692 5.692 0 0 1 5.685 5.685v62.482z"/><path d="M220.93 164.063H217a2.5 2.5 0 1 0 0 5h3.93c5.444 0 9.873 4.429 9.873 9.873s-4.429 9.873-9.873 9.873h-3.68a2.5 2.5 0 1 0 0 5h3.68c8.201 0 14.873-6.672 14.873-14.873-.001-8.202-6.673-14.873-14.873-14.873zM96.416 137.009h-8.377c-5.892 0-10.685 4.793-10.685 10.685v62.482c0 5.892 4.793 10.685 10.685 10.685h8.377c5.891 0 10.684-4.793 10.684-10.685v-62.482c0-5.892-4.793-10.685-10.684-10.685zm5.684 73.167a5.692 5.692 0 0 1-5.684 5.685h-8.377a5.692 5.692 0 0 1-5.685-5.685v-62.482a5.692 5.692 0 0 1 5.685-5.685h8.377a5.69 5.69 0 0 1 5.684 5.685v62.482z"/><path d="M78.75 188.808h-3.459c-5.444 0-9.873-4.429-9.873-9.873s4.429-9.873 9.873-9.873h3.876a2.5 2.5 0 1 0 0-5h-3.876c-8.201 0-14.873 6.672-14.873 14.873s6.672 14.873 14.873 14.873h3.459a2.5 2.5 0 1 0 0-5zM195.523 35.788h-8.377c-5.892 0-10.685 4.793-10.685 10.685v118.861a2.5 2.5 0 1 0 5 0V46.473a5.692 5.692 0 0 1 5.685-5.685h8.377a5.69 5.69 0 0 1 5.684 5.685v92.444a2.5 2.5 0 1 0 5 0V46.473c.001-5.892-4.792-10.685-10.684-10.685z"/><path d="M60.744 35.788h-8.377c-5.892 0-10.685 4.793-10.685 10.685V171.01c0 5.892 4.793 10.685 10.685 10.685h8.377c.567 0 1.143-.048 1.71-.142a2.501 2.501 0 0 0-.819-4.933c-.298.05-.598.075-.891.075h-8.377a5.692 5.692 0 0 1-5.685-5.685V46.473a5.692 5.692 0 0 1 5.685-5.685h8.377a5.69 5.69 0 0 1 5.684 5.685v121.36a2.5 2.5 0 1 0 5 0V46.473c0-5.892-4.793-10.685-10.684-10.685z"/></g></svg>